<?xml version="1.0" encoding="UTF-8" standalone="no"?>
<!-- Created with Inkscape (http://www.inkscape.org/) -->

<svg
   version="1.1"
   id="svg669"
   xml:space="preserve"
   width="682.66669"
   height="682.66669"
   viewBox="0 0 682.66669 682.66669"
   xmlns="http://www.w3.org/2000/svg"
   xmlns:svg="http://www.w3.org/2000/svg"><defs
     id="defs673"><clipPath
       clipPathUnits="userSpaceOnUse"
       id="clipPath683"><path
         d="M 0,512 H 512 V 0 H 0 Z"
         id="path681" /></clipPath></defs><g
     id="g675"
     transform="matrix(1.3333333,0,0,-1.3333333,0,682.66667)"><g
       id="g677"><g
         id="g679"
         clip-path="url(#clipPath683)"><g
           id="g685"
           transform="translate(45.999,212.002)"><path
             d="m 0,0 h 420 c 5.501,0 10,-4.5 10,-10 v -30 c 0,-5.5 -4.499,-10 -10,-10 H 0 c -5.5,0 -10,4.5 -10,10 v 30 c 0,5.5 4.5,10 10,10 z"
             style="fill:none;stroke:#000000;stroke-width:20;stroke-linecap:round;stroke-linejoin:round;stroke-miterlimit:22.926;stroke-dasharray:none;stroke-opacity:1"
             id="path687" /></g><g
           id="g689"
           transform="translate(150.0732,357.541)"><path
             d="m 0,0 c 7.393,5.389 15.211,10.23 23.396,14.46 h 165.06 c 57.893,-29.922 97.47,-90.336 97.47,-159.999 m -360,0 c 0,27.451 6.149,53.463 17.139,76.742"
             style="fill:none;stroke:#000000;stroke-width:20;stroke-linecap:round;stroke-linejoin:round;stroke-miterlimit:22.926;stroke-dasharray:none;stroke-opacity:1"
             id="path691" /></g><g
           id="g693"
           transform="translate(295.999,372.0015)"><path
             d="M 0,0 V 20 C 0,31 -8.999,40 -20,40 H -60 C -71,40 -80,31 -80,20 V 0"
             style="fill:none;stroke:#000000;stroke-width:20;stroke-linecap:round;stroke-linejoin:round;stroke-miterlimit:22.926;stroke-dasharray:none;stroke-opacity:1"
             id="path695" /></g><g
           id="g697"
           transform="translate(275.999,412.001)"><path
             d="m 0,0 c 0,27.421 22.579,50 50,50 h 150 m 0,40 H 50 C 0.5,90 -40,49.5 -40,0"
             style="fill:none;stroke:#000000;stroke-width:20;stroke-linecap:round;stroke-linejoin:round;stroke-miterlimit:22.926;stroke-dasharray:none;stroke-opacity:1"
             id="path699" /></g><g
           id="g701"
           transform="translate(195.999,122.001)"><path
             d="M 0,0 V -20"
             style="fill:none;stroke:#000000;stroke-width:20;stroke-linecap:round;stroke-linejoin:round;stroke-miterlimit:22.926;stroke-dasharray:none;stroke-opacity:1"
             id="path703" /></g><g
           id="g705"
           transform="translate(76,122.001)"><path
             d="M 0,0 V -20"
             style="fill:none;stroke:#000000;stroke-width:20;stroke-linecap:round;stroke-linejoin:round;stroke-miterlimit:22.926;stroke-dasharray:none;stroke-opacity:1"
             id="path707" /></g><g
           id="g709"
           transform="translate(315.999,122.001)"><path
             d="M 0,0 V -20"
             style="fill:none;stroke:#000000;stroke-width:20;stroke-linecap:round;stroke-linejoin:round;stroke-miterlimit:22.926;stroke-dasharray:none;stroke-opacity:1"
             id="path711" /></g><g
           id="g713"
           transform="translate(435.999,122.001)"><path
             d="M 0,0 V -20"
             style="fill:none;stroke:#000000;stroke-width:20;stroke-linecap:round;stroke-linejoin:round;stroke-miterlimit:22.926;stroke-dasharray:none;stroke-opacity:1"
             id="path715" /></g><g
           id="g717"
           transform="translate(195.999,61.999)"><path
             d="M 0,0 V -20"
             style="fill:none;stroke:#000000;stroke-width:20;stroke-linecap:round;stroke-linejoin:round;stroke-miterlimit:22.926;stroke-dasharray:none;stroke-opacity:1"
             id="path719" /></g><g
           id="g721"
           transform="translate(76,61.999)"><path
             d="M 0,0 V -20"
             style="fill:none;stroke:#000000;stroke-width:20;stroke-linecap:round;stroke-linejoin:round;stroke-miterlimit:22.926;stroke-dasharray:none;stroke-opacity:1"
             id="path723" /></g><g
           id="g725"
           transform="translate(315.999,61.999)"><path
             d="M 0,0 V -20"
             style="fill:none;stroke:#000000;stroke-width:20;stroke-linecap:round;stroke-linejoin:round;stroke-miterlimit:22.926;stroke-dasharray:none;stroke-opacity:1"
             id="path727" /></g><g
           id="g729"
           transform="translate(255.999,90.0015)"><path
             d="M 0,0 V -20"
             style="fill:none;stroke:#000000;stroke-width:20;stroke-linecap:round;stroke-linejoin:round;stroke-miterlimit:22.926;stroke-dasharray:none;stroke-opacity:1"
             id="path731" /></g><g
           id="g733"
           transform="translate(136,90.0015)"><path
             d="M 0,0 V -20"
             style="fill:none;stroke:#000000;stroke-width:20;stroke-linecap:round;stroke-linejoin:round;stroke-miterlimit:22.926;stroke-dasharray:none;stroke-opacity:1"
             id="path735" /></g><g
           id="g737"
           transform="translate(375.999,90.0015)"><path
             d="M 0,0 V -20"
             style="fill:none;stroke:#000000;stroke-width:20;stroke-linecap:round;stroke-linejoin:round;stroke-miterlimit:22.926;stroke-dasharray:none;stroke-opacity:1"
             id="path739" /></g><g
           id="g741"
           transform="translate(255.999,29.9995)"><path
             d="M 0,0 V -20"
             style="fill:none;stroke:#000000;stroke-width:20;stroke-linecap:round;stroke-linejoin:round;stroke-miterlimit:22.926;stroke-dasharray:none;stroke-opacity:1"
             id="path743" /></g><g
           id="g745"
           transform="translate(136,29.9995)"><path
             d="M 0,0 V -20"
             style="fill:none;stroke:#000000;stroke-width:20;stroke-linecap:round;stroke-linejoin:round;stroke-miterlimit:22.926;stroke-dasharray:none;stroke-opacity:1"
             id="path747" /></g><g
           id="g749"
           transform="translate(375.999,29.9995)"><path
             d="M 0,0 V -20"
             style="fill:none;stroke:#000000;stroke-width:20;stroke-linecap:round;stroke-linejoin:round;stroke-miterlimit:22.926;stroke-dasharray:none;stroke-opacity:1"
             id="path751" /></g><g
           id="g753"
           transform="translate(435.999,61.999)"><path
             d="M 0,0 V -20"
             style="fill:none;stroke:#000000;stroke-width:20;stroke-linecap:round;stroke-linejoin:round;stroke-miterlimit:22.926;stroke-dasharray:none;stroke-opacity:1"
             id="path755" /></g><g
           id="g757"
           transform="translate(117.2842,326.7207)"><path
             d="M 0,0 H 0.008"
             style="fill:none;stroke:#000000;stroke-width:20;stroke-linecap:round;stroke-linejoin:round;stroke-miterlimit:2.613;stroke-dasharray:none;stroke-opacity:1"
             id="path759" /></g></g></g></g></svg>
