<?xml version="1.0" encoding="iso-8859-1"?>
<!-- Generator: Adobe Illustrator 19.0.0, SVG Export Plug-In . SVG Version: 6.00 Build 0)  -->
<svg version="1.1" id="Capa_1" xmlns="http://www.w3.org/2000/svg" xmlns:xlink="http://www.w3.org/1999/xlink" x="0px" y="0px"
	 viewBox="0 0 512 512" style="enable-background:new 0 0 512 512;" xml:space="preserve">
<g>
	<g>
		<path d="M507.606,453.116c-5.857-5.859-15.353-5.857-21.212,0C467.769,471.742,443.007,482,416.667,482
			s-51.102-10.258-69.725-28.884c-2.814-2.813-6.629-4.393-10.607-4.393c-3.978,0-7.793,1.58-10.607,4.393
			C307.103,471.742,282.339,482,256,482c-26.339,0-51.101-10.258-69.726-28.884c-2.813-2.813-6.628-4.393-10.605-4.393
			c-0.001,0-0.001,0-0.001,0c-3.978,0-7.794,1.58-10.606,4.393C146.436,471.742,121.673,482,95.333,482
			c-26.34,0-51.101-10.258-69.726-28.884c-5.858-5.856-15.356-5.857-21.213-0.001c-5.858,5.858-5.858,15.355-0.001,21.214
			C28.685,498.621,60.98,512,95.333,512c29.566,0,57.607-9.908,80.334-28.157C198.394,502.092,226.435,512,256,512
			s57.606-9.908,80.335-28.156C359.06,502.089,387.103,512,416.667,512c34.354,0,66.65-13.379,90.941-37.671
			C513.465,468.471,513.465,458.974,507.606,453.116z"/>
	</g>
</g>
<g>
	<g>
		<path d="M507.606,356.716c-2.928-2.93-6.766-4.394-10.605-4.394c-3.838,0-7.678,1.465-10.607,4.394
			c-18.625,18.626-43.387,28.884-69.727,28.884c-26.34,0-51.102-10.258-69.725-28.884c-2.814-2.813-6.629-4.394-10.607-4.394
			c-3.978,0-7.793,1.58-10.607,4.394c-18.625,18.626-43.389,28.884-69.727,28.884c-26.339,0-51.101-10.258-69.726-28.884
			c-2.813-2.813-6.628-4.394-10.605-4.394c-0.001,0-0.001,0-0.001,0c-3.978,0-7.794,1.58-10.606,4.394
			c-18.626,18.626-43.389,28.884-69.729,28.884c-26.34,0-51.101-10.258-69.726-28.884c-2.929-2.929-6.768-4.393-10.607-4.393
			s-7.678,1.464-10.605,4.392c-5.858,5.858-5.858,15.355-0.001,21.214C28.685,402.221,60.98,415.6,95.333,415.6
			c29.566,0,57.607-9.908,80.334-28.157C198.394,405.692,226.435,415.6,256,415.6s57.606-9.908,80.335-28.156
			c22.725,18.245,50.768,28.156,80.332,28.156c34.354,0,66.65-13.379,90.941-37.671
			C513.465,372.071,513.465,362.574,507.606,356.716z"/>
	</g>
</g>
<g>
	<g>
		<path d="M416.669,0c-52.568,0-95.334,42.767-95.334,95.334v64.189H190.668V95.334C190.668,59.309,219.976,30,256,30
			c8.284,0,15.001-6.716,15.001-15S264.284,0,256,0c-52.566,0-95.332,42.767-95.332,95.334v229.541
			c4.755-1.676,9.81-2.553,15.001-2.553c5.19,0,10.245,0.877,14.999,2.554v-38.952h130.667v38.951c4.754-1.676,9.809-2.553,15-2.553
			c5.189,0,10.244,0.877,15,2.554V95.334c0-36.025,29.309-65.334,65.334-65.334c8.283,0,15-6.716,15-15S424.952,0,416.669,0z
			 M321.335,255.923H190.668v-66.4h130.667V255.923z"/>
	</g>
</g>
<g>
</g>
<g>
</g>
<g>
</g>
<g>
</g>
<g>
</g>
<g>
</g>
<g>
</g>
<g>
</g>
<g>
</g>
<g>
</g>
<g>
</g>
<g>
</g>
<g>
</g>
<g>
</g>
<g>
</g>
</svg>
